<?xml version="1.0" encoding="iso-8859-1"?>
<!-- Generator: Adobe Illustrator 19.0.0, SVG Export Plug-In . SVG Version: 6.00 Build 0)  -->
<svg version="1.1" id="Capa_1" xmlns="http://www.w3.org/2000/svg" xmlns:xlink="http://www.w3.org/1999/xlink" x="0px" y="0px"
	 viewBox="0 0 512.001 512.001" style="enable-background:new 0 0 512.001 512.001;" xml:space="preserve">
<circle style="fill:#7E325F;" cx="256.001" cy="256" r="256"/>
<path style="fill:#463250;" d="M505.611,313.057l-119.778-119.79l-6.884,22.812l-98.684-98.684l-15.974,89.619l-63.334-63.333
	L71.94,250l97.845,97.845l-57.105,29.898l134.074,134.074c3.071,0.109,6.15,0.184,9.247,0.184
	C377.773,512,479.678,426.976,505.611,313.057z"/>
<path style="fill:#FFB4C8;" d="M249.358,212.869l-8.321-11.816c-11.013-15.638-28.944-24.941-48.07-24.941l0,0
	c-27.276,0-50.971,18.76-57.227,45.31L105.065,351.6c-4.092,17.366,9.083,34.008,26.926,34.008h0.935
	c35.831,0,70.411-13.172,97.163-37.009l0,0c12.258-10.923,19.269-26.561,19.269-42.98L249.358,212.869L249.358,212.869z"/>
<path style="fill:#FF96B4;" d="M287.925,212.869l8.321-11.816c11.013-15.638,28.944-24.941,48.07-24.941l0,0
	c27.276,0,50.971,18.76,57.227,45.31L432.217,351.6c4.092,17.366-9.083,34.008-26.926,34.008h-0.935
	c-35.831,0-70.411-13.172-97.163-37.009l0,0c-12.258-10.923-19.269-26.561-19.269-42.98v-92.75H287.925z"/>
<polygon style="fill:#FFF091;" points="280.264,117.395 257.018,117.395 257.018,211.603 208.52,260.101 224.958,276.538 
	267.953,233.543 269.33,233.543 312.325,276.538 328.763,260.101 280.264,211.603 "/>
<polygon style="fill:#FFD06B;" points="280.264,211.603 280.264,117.395 268.705,117.395 268.705,233.543 269.33,233.543 
	312.325,276.538 328.763,260.101 "/>
<circle style="fill:#FFFFFF;" cx="138.501" cy="199.32" r="75.19"/>
<path style="fill:#E0E0E0;" d="M213.691,199.321c0-41.463-33.561-75.083-74.999-75.189v150.377
	C180.13,274.404,213.691,240.784,213.691,199.321z"/>
<path style="fill:#999999;" d="M138.497,283.014c-46.149,0-83.694-37.545-83.694-83.694s37.545-83.694,83.694-83.694
	s83.694,37.545,83.694,83.694S184.646,283.014,138.497,283.014z M138.497,132.627c-36.775,0-66.694,29.919-66.694,66.694
	s29.919,66.694,66.694,66.694s66.694-29.919,66.694-66.694S175.272,132.627,138.497,132.627z"/>
<path style="fill:#808080;" d="M222.191,199.321c0-46.083-37.44-83.583-83.5-83.689v17c36.685,0.106,66.5,29.979,66.5,66.689
	s-29.814,66.583-66.5,66.689v17C184.751,282.903,222.191,245.404,222.191,199.321z"/>
<circle style="fill:#FF4682;" cx="144.251" cy="169.07" r="15.13"/>
<path style="fill:#D72D73;" d="M144.25,153.939c-1.965,0-3.836,0.387-5.559,1.068v28.118c1.722,0.682,3.594,1.068,5.559,1.068
	c8.354,0,15.127-6.773,15.127-15.127C159.377,160.712,152.605,153.939,144.25,153.939z"/>
<circle style="fill:#FF5F96;" cx="108.841" cy="223.08" r="15.13"/>
<circle style="fill:#82CD64;" cx="108.841" cy="184.19" r="7.564"/>
<circle style="fill:#64A54B;" cx="167.391" cy="204.16" r="18.928"/>
<g>
</g>
<g>
</g>
<g>
</g>
<g>
</g>
<g>
</g>
<g>
</g>
<g>
</g>
<g>
</g>
<g>
</g>
<g>
</g>
<g>
</g>
<g>
</g>
<g>
</g>
<g>
</g>
<g>
</g>
</svg>
