<?xml version="1.0" encoding="iso-8859-1"?>
<!-- Generator: Adobe Illustrator 19.0.0, SVG Export Plug-In . SVG Version: 6.00 Build 0)  -->
<svg version="1.1" id="Capa_1" xmlns="http://www.w3.org/2000/svg" xmlns:xlink="http://www.w3.org/1999/xlink" x="0px" y="0px"
	 viewBox="0 0 512 512" style="enable-background:new 0 0 512 512;" xml:space="preserve">
<circle style="fill:#7E325F;" cx="256" cy="256" r="256"/>
<path style="fill:#463250;" d="M512,256c0-6.528-0.248-12.998-0.728-19.404l-140.501-140.5l-83.07,59.214L108.375,374.708
	L246.584,511.81c3.127,0.113,6.262,0.19,9.416,0.19C397.385,512,512,397.385,512,256z"/>
<path style="fill:#FFD7CD;" d="M289.6,167.687H172.227c-8.766,0-17.436,1.837-25.449,5.392l0,0
	c-44.489,18.444-75.798,62.265-75.857,113.411c-0.076,66.917,54.217,122.078,121.128,123.011
	c68.668,0.957,124.634-54.42,124.634-122.869c0-13.197-2.089-25.904-5.939-37.819C310.74,248.802,294.195,194.798,289.6,167.687z"/>
<path style="fill:#FAB9AF;" d="M316.683,286.633c0-13.197-2.089-25.904-5.939-37.819c-0.004-0.011-16.549-54.015-21.143-81.126
	h-93.172v241.789C263.08,408.078,316.683,353.619,316.683,286.633z"/>
<g>
	<circle style="fill:#C69C6D;" cx="197.13" cy="283.91" r="51.36"/>
	<circle style="fill:#C69C6D;" cx="197.13" cy="283.91" r="51.36"/>
</g>
<g>
	<path style="fill:#A67C52;" d="M197.13,232.55c-0.235,0-0.467,0.015-0.701,0.018v102.678c0.234,0.003,0.466,0.018,0.701,0.018
		c28.364,0,51.357-22.993,51.357-51.357S225.493,232.55,197.13,232.55z"/>
	<circle style="fill:#A67C52;" cx="197.13" cy="283.91" r="21.713"/>
</g>
<path style="fill:#8C6239;" d="M197.13,262.193c-0.235,0-0.468,0.01-0.701,0.018v43.391c0.233,0.007,0.466,0.018,0.701,0.018
	c11.992,0,21.713-9.721,21.713-21.713S209.122,262.193,197.13,262.193z"/>
<polygon style="fill:#FF4682;" points="388.823,141.824 288.812,141.824 287.701,96.096 370.771,96.096 "/>
<polygon style="fill:#D72D73;" points="370.771,96.096 329.167,96.095 329.167,141.824 388.823,141.824 "/>
<polygon style="fill:#FFA5C8;" points="369.985,337.613 257.067,135.058 287.701,96.096 409.959,315.406 "/>
<polygon style="fill:#FF5F96;" points="409.959,315.406 329.237,170.603 329.167,264.392 369.985,337.613 "/>
<polygon style="fill:#FF8CB4;" points="288.488,337.613 401.406,135.058 370.771,96.096 248.513,315.406 "/>
<polygon style="fill:#FF4682;" points="370.771,96.096 329.237,170.603 329.235,264.521 401.406,135.058 "/>
<g>
</g>
<g>
</g>
<g>
</g>
<g>
</g>
<g>
</g>
<g>
</g>
<g>
</g>
<g>
</g>
<g>
</g>
<g>
</g>
<g>
</g>
<g>
</g>
<g>
</g>
<g>
</g>
<g>
</g>
</svg>
